<?xml version="1.0" encoding="utf-8"?>
<!-- Generator: Adobe Illustrator 16.0.0, SVG Export Plug-In . SVG Version: 6.00 Build 0)  -->
<!DOCTYPE svg PUBLIC "-//W3C//DTD SVG 1.1//EN" "http://www.w3.org/Graphics/SVG/1.1/DTD/svg11.dtd">
<svg version="1.1" id="Layer_1" xmlns="http://www.w3.org/2000/svg" xmlns:xlink="http://www.w3.org/1999/xlink" x="0px" y="0px"
	 width="329.284px" height="55.829px" viewBox="0 0 329.284 55.829" enable-background="new 0 0 329.284 55.829"
	 xml:space="preserve">
<g>
	<g>
		<g>
			<g>
				<path fill="#FF2B06" d="M8.624,7.793h-8.46V0.056h26.211v7.738h-8.457v22.45H8.624V7.793z"/>
				<path fill="#FF2B06" d="M27.82,0.056h25.445v7.738H37.121v3.762h16.144v7.189H37.121v3.762h16.148v7.737H27.82V0.056z"/>
				<path fill="#FF2B06" d="M54.83,0.056h15.263c10.061,0,13.616,7.442,13.616,15.05c0,9.262-4.904,15.138-15.433,15.138H54.83
					V0.056z M64.131,22.506h3.637c5.794,0,6.641-4.694,6.641-7.53c0-1.898-0.596-7.183-7.318-7.183h-2.96V22.506z"/>
			</g>
			<g>
				<g>
					<path fill="#FF2B06" d="M97.073,18.61l-2.837-4.704L91.47,18.61h-6.814l6.469-9.513L84.895,0h6.817l2.524,4.496L96.833,0h6.815
						l-6.228,9.097l6.469,9.513H97.073z"/>
				</g>
			</g>
		</g>
		<g>
			<path d="M115.676,3.669H105.7V0.316h23.934v3.354h-9.976v26.574h-3.982V3.669z"/>
			<path d="M146.187,23.37c-0.964,4.778-4.401,7.377-9.263,7.377c-6.917,0-10.186-4.778-10.396-11.4
				c0-6.498,4.275-11.276,10.186-11.276c7.671,0,10.018,7.167,9.809,12.407h-16.222c-0.125,3.773,2.012,7.126,6.749,7.126
				c2.934,0,4.988-1.425,5.617-4.233H146.187z M142.75,17.333c-0.167-3.395-2.725-6.119-6.246-6.119
				c-3.73,0-5.952,2.808-6.204,6.119H142.75z"/>
			<path d="M168.901,28.4c0,7.042-3.228,10.646-10.06,10.646c-4.066,0-8.761-1.635-8.97-6.371h3.563
				c0.167,2.599,3.27,3.521,5.617,3.521c4.653,0,6.497-3.354,6.497-8.215v-1.426h-0.084c-1.173,2.641-4.024,3.94-6.749,3.94
				c-6.455,0-9.683-5.072-9.683-10.982c0-5.113,2.515-11.443,10.018-11.443c2.725,0,5.156,1.215,6.455,3.605h0.042V8.573h3.353V28.4
				z M165.38,18.968c0-3.813-1.676-7.754-6.162-7.754c-4.569,0-6.413,3.73-6.413,7.88c0,3.898,1.425,8.258,6.12,8.258
				C163.62,27.352,165.38,23.035,165.38,18.968z"/>
			<path d="M192.203,30.244h-3.354v-3.437h-0.084c-1.509,2.683-3.939,3.939-7.042,3.939c-5.7,0-7.461-3.27-7.461-7.922V8.573h3.563
				v14.67c0,2.641,1.676,4.359,4.4,4.359c4.317,0,6.413-2.892,6.413-6.79V8.573h3.563V30.244z"/>
			<path d="M212.276,15.532c-0.545-2.725-2.431-4.317-5.365-4.317c-5.155,0-6.749,4.065-6.749,8.467c0,3.981,1.803,7.922,6.33,7.922
				c3.438,0,5.49-2.012,5.952-5.281h3.646c-0.796,5.281-4.108,8.425-9.557,8.425c-6.623,0-10.144-4.61-10.144-11.065
				c0-6.497,3.354-11.611,10.227-11.611c4.904,0,8.845,2.305,9.348,7.461H212.276z"/>
			<path d="M223.842,4.675h-3.563V0.316h3.563V4.675z M220.278,8.573h3.563v21.67h-3.563V8.573z"/>
			<path d="M248.066,28.4c0,7.042-3.228,10.646-10.06,10.646c-4.065,0-8.761-1.635-8.97-6.371h3.563
				c0.168,2.599,3.27,3.521,5.617,3.521c4.652,0,6.496-3.354,6.496-8.215v-1.426h-0.084c-1.173,2.641-4.023,3.94-6.748,3.94
				c-6.455,0-9.683-5.072-9.683-10.982c0-5.113,2.515-11.443,10.019-11.443c2.725,0,5.155,1.215,6.455,3.605h0.041V8.573h3.354V28.4
				z M244.545,18.968c0-3.813-1.676-7.754-6.161-7.754c-4.569,0-6.413,3.73-6.413,7.88c0,3.898,1.426,8.258,6.12,8.258
				S244.545,23.035,244.545,18.968z"/>
			<path d="M272.625,30.16c-0.629,0.378-1.426,0.587-2.557,0.587c-1.845,0-3.019-1.006-3.019-3.354
				c-1.97,2.306-4.61,3.354-7.628,3.354c-3.941,0-7.168-1.76-7.168-6.078c0-4.903,3.646-5.951,7.335-6.664
				c3.94-0.754,7.294-0.503,7.294-3.186c0-3.102-2.558-3.604-4.82-3.604c-3.019,0-5.24,0.922-5.408,4.107h-3.563
				c0.209-5.365,4.359-7.251,9.18-7.251c3.898,0,8.132,0.88,8.132,5.952v11.15c0,1.677,0,2.431,1.132,2.431
				c0.293,0,0.629-0.042,1.09-0.21V30.16z M266.84,19.052c-1.383,1.006-4.065,1.048-6.455,1.468
				c-2.347,0.418-4.359,1.257-4.359,3.897c0,2.348,2.013,3.186,4.192,3.186c4.694,0,6.622-2.935,6.622-4.904V19.052z"/>
			<path d="M276.142,0.316h3.563v29.928h-3.563V0.316z"/>
			<path d="M285.361,8.573h3.563v2.934h0.084c1.174-2.389,3.939-3.437,6.916-3.437c6.664,0,9.977,5.282,9.977,11.401
				c0,6.12-3.27,11.275-9.893,11.275c-2.222,0-5.407-0.838-7-3.395h-0.084v11.191h-3.563V8.573z M295.421,11.214
				c-4.778,0-6.622,4.107-6.622,8.173c0,4.275,1.928,8.216,6.832,8.216c4.861,0,6.496-4.149,6.496-8.383
				C302.127,15.155,300.031,11.214,295.421,11.214z"/>
			<path d="M329.284,30.16c-0.628,0.378-1.425,0.587-2.557,0.587c-1.845,0-3.019-1.006-3.019-3.354
				c-1.969,2.306-4.61,3.354-7.628,3.354c-3.94,0-7.168-1.76-7.168-6.078c0-4.903,3.647-5.951,7.335-6.664
				c3.94-0.754,7.294-0.503,7.294-3.186c0-3.102-2.558-3.604-4.82-3.604c-3.019,0-5.239,0.922-5.407,4.107h-3.563
				c0.209-5.365,4.359-7.251,9.18-7.251c3.897,0,8.131,0.88,8.131,5.952v11.15c0,1.677,0,2.431,1.132,2.431
				c0.294,0,0.629-0.042,1.09-0.21V30.16z M323.5,19.052c-1.383,1.006-4.066,1.048-6.455,1.468
				c-2.348,0.418-4.359,1.257-4.359,3.897c0,2.348,2.012,3.186,4.191,3.186c4.695,0,6.623-2.935,6.623-4.904V19.052z"/>
		</g>
	</g>
	<g>
		<path fill="#FF2B06" d="M2.612,49.255l-2.388-3.441H2.5l1.278,1.896l1.264-1.896h2.205l-2.388,3.399l2.683,3.862H5.267
			l-1.517-2.29l-1.517,2.29H0L2.612,49.255z"/>
		<g>
			<g>
				<path d="M16.994,48.778H9.901v-1.503h7.093V48.778z M16.994,51.784H9.901v-1.503h7.093V51.784z"/>
				<path d="M22.429,44.692h-1.995v-1.645h1.995V44.692z M20.434,45.814h1.995v7.262h-1.995V45.814z"/>
				<path d="M23.721,45.814h1.896v1.011h0.042c0.505-0.814,1.376-1.207,2.219-1.207c2.121,0,2.654,1.194,2.654,2.992v4.466h-1.995
					v-4.103c0-1.192-0.351-1.783-1.278-1.783c-1.082,0-1.545,0.604-1.545,2.08v3.806h-1.994V45.814z"/>
				<path d="M36.95,52.149h-0.027c-0.463,0.786-1.278,1.123-2.205,1.123c-2.191,0-3.258-1.883-3.258-3.89
					c0-1.953,1.081-3.765,3.216-3.765c0.856,0,1.7,0.365,2.163,1.082h-0.015h0.028v-3.652h1.994v10.028H36.95V52.149z
					 M35.209,47.121c-1.306,0-1.756,1.123-1.756,2.317c0,1.137,0.52,2.33,1.756,2.33c1.32,0,1.713-1.15,1.713-2.344
					C36.923,48.244,36.502,47.121,35.209,47.121z"/>
				<path d="M41.711,49.93c0.057,1.262,0.675,1.838,1.784,1.838c0.8,0,1.447-0.49,1.573-0.94h1.755
					c-0.562,1.716-1.755,2.444-3.399,2.444c-2.289,0-3.708-1.572-3.708-3.82c0-2.177,1.502-3.834,3.708-3.834
					c2.472,0,3.667,2.078,3.526,4.313H41.711z M44.956,48.667c-0.182-1.012-0.618-1.546-1.587-1.546
					c-1.264,0-1.629,0.983-1.658,1.546H44.956z"/>
				<path d="M47.849,45.814h1.896v0.927h0.028c0.478-0.771,1.264-1.123,2.163-1.123c2.276,0,3.301,1.84,3.301,3.904
					c0,1.94-1.068,3.75-3.188,3.75c-0.871,0-1.7-0.379-2.177-1.096h-0.028v3.456h-1.995V45.814z M53.242,49.466
					c0-1.151-0.463-2.346-1.742-2.346c-1.306,0-1.728,1.167-1.728,2.346c0,1.181,0.45,2.302,1.742,2.302
					C52.821,51.768,53.242,50.647,53.242,49.466z"/>
				<path d="M57.792,49.93c0.056,1.262,0.674,1.838,1.783,1.838c0.801,0,1.447-0.49,1.573-0.94h1.756
					c-0.563,1.716-1.756,2.444-3.399,2.444c-2.289,0-3.708-1.572-3.708-3.82c0-2.177,1.503-3.834,3.708-3.834
					c2.472,0,3.666,2.078,3.525,4.313H57.792z M61.037,48.667c-0.182-1.012-0.618-1.546-1.587-1.546
					c-1.264,0-1.629,0.983-1.657,1.546H61.037z"/>
				<path d="M63.93,45.814h1.896v1.011h0.042c0.506-0.814,1.377-1.207,2.22-1.207c2.121,0,2.654,1.194,2.654,2.992v4.466h-1.995
					v-4.103c0-1.192-0.351-1.783-1.278-1.783c-1.081,0-1.545,0.604-1.545,2.08v3.806H63.93V45.814z"/>
				<path d="M77.159,52.149h-0.028c-0.463,0.786-1.278,1.123-2.205,1.123c-2.191,0-3.258-1.883-3.258-3.89
					c0-1.953,1.082-3.765,3.216-3.765c0.856,0,1.699,0.365,2.163,1.082h-0.014h0.028v-3.652h1.994v10.028h-1.896V52.149z
					 M75.418,47.121c-1.307,0-1.756,1.123-1.756,2.317c0,1.137,0.52,2.33,1.756,2.33c1.32,0,1.713-1.15,1.713-2.344
					C77.131,48.244,76.71,47.121,75.418,47.121z"/>
				<path d="M81.92,49.93c0.057,1.262,0.674,1.838,1.784,1.838c0.8,0,1.447-0.49,1.573-0.94h1.756
					c-0.562,1.716-1.756,2.444-3.399,2.444c-2.29,0-3.708-1.572-3.708-3.82c0-2.177,1.503-3.834,3.708-3.834
					c2.472,0,3.666,2.078,3.525,4.313H81.92z M85.165,48.667c-0.183-1.012-0.618-1.546-1.588-1.546
					c-1.264,0-1.629,0.983-1.657,1.546H85.165z"/>
				<path d="M88.058,45.814h1.896v1.011h0.042c0.505-0.814,1.376-1.207,2.219-1.207c2.121,0,2.655,1.194,2.655,2.992v4.466h-1.996
					v-4.103c0-1.192-0.351-1.783-1.278-1.783c-1.082,0-1.545,0.604-1.545,2.08v3.806h-1.994V45.814z"/>
				<path d="M98.632,45.814h1.461v1.337h-1.461v3.593c0,0.675,0.169,0.845,0.843,0.845c0.21,0,0.407-0.016,0.618-0.058v1.56
					c-0.337,0.056-0.772,0.069-1.166,0.069c-1.222,0-2.29-0.279-2.29-1.728v-4.281h-1.208v-1.337h1.208v-2.175h1.994V45.814z"/>
				<path d="M100.824,43.047h1.994v10.028h-1.994V43.047z"/>
				<path d="M107.691,53.989c-0.436,1.166-1.124,1.644-2.5,1.644c-0.408,0-0.815-0.028-1.222-0.07v-1.644
					c0.379,0.028,0.772,0.084,1.166,0.07c0.688-0.07,0.913-0.787,0.688-1.361l-2.556-6.813h2.135l1.643,4.972h0.027l1.588-4.972
					h2.064L107.691,53.989z"/>
				<path d="M118.267,45.618c2.29,0,3.765,1.518,3.765,3.834c0,2.304-1.475,3.82-3.765,3.82c-2.275,0-3.75-1.517-3.75-3.82
					C114.517,47.135,115.992,45.618,118.267,45.618z M118.267,51.768c1.363,0,1.77-1.164,1.77-2.316c0-1.164-0.407-2.331-1.77-2.331
					c-1.348,0-1.755,1.167-1.755,2.331C116.511,50.604,116.918,51.768,118.267,51.768z"/>
				<path d="M122.76,45.814h1.896v1.35h0.029c0.365-0.913,1.348-1.546,2.317-1.546c0.14,0,0.309,0.028,0.435,0.07v1.854
					c-0.182-0.041-0.478-0.07-0.716-0.07c-1.461,0-1.966,1.055-1.966,2.332v3.272h-1.996V45.814z"/>
				<path d="M134.924,52.613c0,1.192-0.422,3.216-3.765,3.216c-1.432,0-3.104-0.674-3.202-2.331h1.981
					c0.182,0.745,0.786,0.996,1.488,0.996c1.11,0,1.616-0.757,1.601-1.796v-0.955H133c-0.436,0.758-1.306,1.123-2.177,1.123
					c-2.177,0-3.104-1.658-3.104-3.652c0-1.882,1.081-3.596,3.119-3.596c0.955,0,1.685,0.324,2.163,1.166h0.028v-0.97h1.896V52.613z
					 M133.027,49.354c0-1.18-0.407-2.233-1.7-2.233c-1.123,0-1.615,0.983-1.615,2.065c0,1.037,0.393,2.177,1.615,2.177
					C132.466,51.363,133.027,50.393,133.027,49.354z"/>
				<path d="M135.878,48.047c0.113-1.867,1.784-2.43,3.413-2.43c1.446,0,3.188,0.324,3.188,2.066v3.778
					c0,0.657,0.07,1.318,0.252,1.613h-2.022c-0.071-0.224-0.126-0.463-0.141-0.703c-0.631,0.663-1.559,0.899-2.444,0.899
					c-1.376,0-2.472-0.688-2.472-2.176c0-1.645,1.236-2.037,2.472-2.205c1.222-0.184,2.36-0.141,2.36-0.956
					c0-0.857-0.59-0.983-1.292-0.983c-0.759,0-1.25,0.31-1.32,1.096H135.878z M140.485,49.522c-0.337,0.295-1.04,0.31-1.658,0.422
					c-0.618,0.127-1.18,0.337-1.18,1.067c0,0.744,0.577,0.927,1.222,0.927c1.56,0,1.616-1.236,1.616-1.67V49.522z"/>
				<path d="M143.743,45.814h1.896v1.011h0.042c0.505-0.814,1.376-1.207,2.219-1.207c2.121,0,2.655,1.194,2.655,2.992v4.466h-1.994
					v-4.103c0-1.192-0.351-1.783-1.278-1.783c-1.081,0-1.545,0.604-1.545,2.08v3.806h-1.995V45.814z"/>
				<path d="M153.56,44.692h-1.995v-1.645h1.995V44.692z M151.565,45.814h1.995v7.262h-1.995V45.814z"/>
				<path d="M154.403,51.573l3.778-4.256h-3.498v-1.503h6.124v1.503l-3.778,4.256h4.045v1.503h-6.671V51.573z"/>
				<path d="M163.503,49.93c0.056,1.262,0.674,1.838,1.784,1.838c0.8,0,1.446-0.49,1.573-0.94h1.755
					c-0.561,1.716-1.755,2.444-3.398,2.444c-2.289,0-3.708-1.572-3.708-3.82c0-2.177,1.502-3.834,3.708-3.834
					c2.472,0,3.666,2.078,3.526,4.313H163.503z M166.748,48.667c-0.183-1.012-0.619-1.546-1.587-1.546
					c-1.265,0-1.629,0.983-1.658,1.546H166.748z"/>
				<path d="M174.824,52.149h-0.029c-0.463,0.786-1.277,1.123-2.205,1.123c-2.191,0-3.258-1.883-3.258-3.89
					c0-1.953,1.081-3.765,3.216-3.765c0.856,0,1.699,0.365,2.163,1.082h-0.014h0.027v-3.652h1.994v10.028h-1.895V52.149z
					 M173.082,47.121c-1.307,0-1.756,1.123-1.756,2.317c0,1.137,0.519,2.33,1.756,2.33c1.32,0,1.713-1.15,1.713-2.344
					C174.795,48.244,174.375,47.121,173.082,47.121z"/>
				<path d="M183.994,44.901h-3.006v-1.854h8.217v1.854h-3.006v8.175h-2.205V44.901z"/>
				<path d="M190.075,43.047h7.5v1.854h-5.296v2.149h4.86v1.714h-4.86v2.458h5.408v1.854h-7.612V43.047z"/>
				<path d="M198.613,43.047h4.326c2.599,0,4.551,1.629,4.551,4.958c0,2.907-1.488,5.07-4.551,5.07h-4.326V43.047z M200.818,51.222
					h1.967c1.278,0,2.5-0.786,2.5-3.006c0-2.022-0.701-3.315-2.893-3.315h-1.574V51.222z"/>
				<path d="M213.797,49.93c0.055,1.262,0.674,1.838,1.783,1.838c0.801,0,1.446-0.49,1.572-0.94h1.756
					c-0.562,1.716-1.756,2.444-3.398,2.444c-2.289,0-3.708-1.572-3.708-3.82c0-2.177,1.503-3.834,3.708-3.834
					c2.472,0,3.666,2.078,3.525,4.313H213.797z M217.041,48.667c-0.184-1.012-0.619-1.546-1.588-1.546
					c-1.264,0-1.629,0.983-1.656,1.546H217.041z"/>
				<path d="M223.67,53.076h-2.221l-2.485-7.262h2.093l1.531,4.958h0.027l1.531-4.958h1.98L223.67,53.076z"/>
				<path d="M228.037,49.93c0.056,1.262,0.674,1.838,1.783,1.838c0.801,0,1.447-0.49,1.574-0.94h1.756
					c-0.563,1.716-1.756,2.444-3.4,2.444c-2.289,0-3.707-1.572-3.707-3.82c0-2.177,1.503-3.834,3.707-3.834
					c2.473,0,3.666,2.078,3.525,4.313H228.037z M231.281,48.667c-0.183-1.012-0.618-1.546-1.587-1.546
					c-1.265,0-1.63,0.983-1.657,1.546H231.281z"/>
				<path d="M234.175,45.814h1.896v1.011h0.043c0.506-0.814,1.376-1.207,2.219-1.207c2.121,0,2.654,1.194,2.654,2.992v4.466h-1.994
					v-4.103c0-1.192-0.352-1.783-1.279-1.783c-1.08,0-1.544,0.604-1.544,2.08v3.806h-1.994V45.814z"/>
				<path d="M244.75,45.814h1.461v1.337h-1.461v3.593c0,0.675,0.168,0.845,0.843,0.845c0.21,0,0.407-0.016,0.618-0.058v1.56
					c-0.338,0.056-0.772,0.069-1.166,0.069c-1.223,0-2.289-0.279-2.289-1.728v-4.281h-1.209v-1.337h1.209v-2.175h1.994V45.814z"/>
			</g>
		</g>
	</g>
</g>
</svg>
